<mxfile host="Electron" agent="Mozilla/5.0 (X11; Linux x86_64) AppleWebKit/537.36 (KHTML, like Gecko) draw.io/28.0.6 Chrome/138.0.7204.100 Electron/37.2.3 Safari/537.36" version="28.0.6">
  <diagram name="Page-1" id="I5YYaXjb335lbLIgwLFo">
    <mxGraphModel dx="570" dy="336" grid="1" gridSize="10" guides="1" tooltips="1" connect="1" arrows="1" fold="1" page="1" pageScale="1" pageWidth="850" pageHeight="1100" math="1" shadow="0">
      <root>
        <mxCell id="0" />
        <mxCell id="1" parent="0" />
        <mxCell id="fRqpqb5syxs9ChWNGuFg-1" value="" style="endArrow=classic;html=1;rounded=0;" edge="1" parent="1">
          <mxGeometry width="50" height="50" relative="1" as="geometry">
            <mxPoint x="280" y="320" as="sourcePoint" />
            <mxPoint x="280" y="190" as="targetPoint" />
          </mxGeometry>
        </mxCell>
        <mxCell id="fRqpqb5syxs9ChWNGuFg-2" value="" style="endArrow=classic;html=1;rounded=0;" edge="1" parent="1">
          <mxGeometry width="50" height="50" relative="1" as="geometry">
            <mxPoint x="280" y="320" as="sourcePoint" />
            <mxPoint x="450" y="320" as="targetPoint" />
          </mxGeometry>
        </mxCell>
        <mxCell id="fRqpqb5syxs9ChWNGuFg-3" value="$$x&#39;$$" style="text;html=1;align=center;verticalAlign=middle;resizable=0;points=[];autosize=1;strokeColor=none;fillColor=none;" vertex="1" parent="1">
          <mxGeometry x="420" y="320" width="60" height="30" as="geometry" />
        </mxCell>
        <mxCell id="fRqpqb5syxs9ChWNGuFg-4" value="$$y&#39;$$" style="text;html=1;align=center;verticalAlign=middle;resizable=0;points=[];autosize=1;strokeColor=none;fillColor=none;" vertex="1" parent="1">
          <mxGeometry x="220" y="180" width="60" height="30" as="geometry" />
        </mxCell>
        <mxCell id="fRqpqb5syxs9ChWNGuFg-5" value="" style="endArrow=none;html=1;rounded=0;" edge="1" parent="1">
          <mxGeometry width="50" height="50" relative="1" as="geometry">
            <mxPoint x="280" y="320" as="sourcePoint" />
            <mxPoint x="410" y="260" as="targetPoint" />
          </mxGeometry>
        </mxCell>
        <mxCell id="fRqpqb5syxs9ChWNGuFg-6" value="" style="endArrow=none;html=1;rounded=0;" edge="1" parent="1">
          <mxGeometry width="50" height="50" relative="1" as="geometry">
            <mxPoint x="280" y="320" as="sourcePoint" />
            <mxPoint x="350" y="260" as="targetPoint" />
          </mxGeometry>
        </mxCell>
        <mxCell id="fRqpqb5syxs9ChWNGuFg-8" value="" style="endArrow=none;html=1;rounded=0;curved=1;" edge="1" parent="1">
          <mxGeometry width="50" height="50" relative="1" as="geometry">
            <mxPoint x="330" y="320" as="sourcePoint" />
            <mxPoint x="312" y="292" as="targetPoint" />
            <Array as="points">
              <mxPoint x="330" y="300" />
            </Array>
          </mxGeometry>
        </mxCell>
        <mxCell id="fRqpqb5syxs9ChWNGuFg-9" value="" style="endArrow=none;html=1;rounded=0;curved=1;" edge="1" parent="1">
          <mxGeometry width="50" height="50" relative="1" as="geometry">
            <mxPoint x="358" y="320" as="sourcePoint" />
            <mxPoint x="340" y="292" as="targetPoint" />
            <Array as="points">
              <mxPoint x="358" y="300" />
            </Array>
          </mxGeometry>
        </mxCell>
        <mxCell id="fRqpqb5syxs9ChWNGuFg-10" value="$$30^\circ$$" style="text;html=1;align=center;verticalAlign=middle;resizable=0;points=[];autosize=1;strokeColor=none;fillColor=none;" vertex="1" parent="1">
          <mxGeometry x="320" y="290" width="100" height="30" as="geometry" />
        </mxCell>
        <mxCell id="fRqpqb5syxs9ChWNGuFg-12" value="$$P$$" style="text;html=1;align=center;verticalAlign=middle;resizable=0;points=[];autosize=1;strokeColor=none;fillColor=none;" vertex="1" parent="1">
          <mxGeometry x="390" y="230" width="60" height="30" as="geometry" />
        </mxCell>
        <mxCell id="fRqpqb5syxs9ChWNGuFg-13" value="" style="ellipse;whiteSpace=wrap;html=1;aspect=fixed;fillColor=#3399FF;strokeColor=none;" vertex="1" parent="1">
          <mxGeometry x="409" y="257" width="5" height="5" as="geometry" />
        </mxCell>
      </root>
    </mxGraphModel>
  </diagram>
</mxfile>
